<svg xmlns="http://www.w3.org/2000/svg" width="13.001" height="15.968" viewBox="0 0 13.001 15.968">
  <path id="Apple_logo_black" d="M12.585,5.444a3.617,3.617,0,0,0-1.728,3.042A3.521,3.521,0,0,0,13,11.715a8.374,8.374,0,0,1-1.1,2.266c-.683.984-1.4,1.966-2.483,1.966s-1.365-.631-2.619-.631c-1.222,0-1.656.652-2.649.652s-1.686-.91-2.483-2.028A9.781,9.781,0,0,1,0,8.652C0,5.548,2.019,3.9,4.005,3.9c1.056,0,1.935.693,2.6.693.631,0,1.615-.735,2.815-.735a3.765,3.765,0,0,1,3.167,1.584Zm-3.737-2.9A3.566,3.566,0,0,0,9.7.321,1.533,1.533,0,0,0,9.666,0,3.572,3.572,0,0,0,7.317,1.21a3.472,3.472,0,0,0-.88,2.164,1.466,1.466,0,0,0,.03.289,1.25,1.25,0,0,0,.217.021A3.1,3.1,0,0,0,8.849,2.546Z"/>
</svg>
