<svg xmlns="http://www.w3.org/2000/svg" xmlns:xlink="http://www.w3.org/1999/xlink" width="34.63" height="34.63" viewBox="0 0 34.63 34.63">
  <defs>
    <clipPath id="clip-path">
      <rect id="Rectangle_3252" data-name="Rectangle 3252" width="34.63" height="34.63" rx="17.315" fill="#f37776"/>
    </clipPath>
  </defs>
  <g id="Group_5199" data-name="Group 5199" transform="translate(-381.904 -28.543)">
    <g id="Group_4101" data-name="Group 4101" transform="translate(381.904 28.543)">
      <g id="Group_4100" data-name="Group 4100" clip-path="url(#clip-path)">
        <rect id="Rectangle_3251" data-name="Rectangle 3251" width="36.06" height="36.06" transform="translate(-1.459 0.062) rotate(-2.417)" fill="#f37776"/>
      </g>
    </g>
    <path id="Path_2123" data-name="Path 2123" d="M51.212,68.047h-.022a7.19,7.19,0,0,1-2.279-.436,38.881,38.881,0,0,1-4.3-1.839,8.235,8.235,0,0,1-4.579-7.132c-.058-1.419.11-4.707.113-4.706.063.021.663.154,1.2.339.655.225.978.591.945,1.2l-.007.3a22.737,22.737,0,0,0-.037,2.769A5.985,5.985,0,0,0,45.6,63.79a36.668,36.668,0,0,0,4.055,1.736,4.1,4.1,0,0,0,3.108,0A36.687,36.687,0,0,0,56.82,63.79a6.064,6.064,0,0,0,3.356-5.259,42.127,42.127,0,0,0-.146-5.638,0,0,0,0,0-.006,0,21.657,21.657,0,0,0-8.013,4.665c-.2.209-.746.8-.79.847a0,0,0,0,1-.006,0c-.045-.048-.616-.657-.814-.873-1.68-1.834-4.653-3.461-9.354-5.12a1.108,1.108,0,0,1-.736-1.125,6.055,6.055,0,0,1,5.86-5.721c1.742-.063,8.334-.063,10.076,0a5.939,5.939,0,0,1,4.4,2.141c.186.222.611.7.654.749a0,0,0,0,1,0,.006l-1.461.662a.953.953,0,0,1-1.081-.209,3.754,3.754,0,0,0-2.59-1.137c-1.714-.062-8.2-.062-9.916,0a3.836,3.836,0,0,0-3.592,2.856,0,0,0,0,0,0,.005,26.721,26.721,0,0,1,8.568,4.6,0,0,0,0,0,.005,0,27.811,27.811,0,0,1,9.41-4.924,1.108,1.108,0,0,1,1.459.942,50.147,50.147,0,0,1,.281,7.393,8.331,8.331,0,0,1-4.578,7.12,38.892,38.892,0,0,1-4.3,1.839,7.19,7.19,0,0,1-2.279.436h-.022" transform="translate(348.073 -10.13)" fill="#fff"/>
  </g>
</svg>
