<svg xmlns="http://www.w3.org/2000/svg" width="17" height="17" viewBox="0 0 17 17">
  <g id="Google__G__Logo" data-name="Google_&quot;G&quot;_Logo" transform="translate(1184.582 765.171)">
    <path id="Path_14168" data-name="Path 14168" d="M-1089.333-687.239v3.389h4.709a4.035,4.035,0,0,1-1.758,2.633l2.84,2.2a8.549,8.549,0,0,0,2.609-6.435,10.055,10.055,0,0,0-.159-1.79Z" transform="translate(-86.649 -71.273)" fill="#4285f4"/>
    <path id="Path_14169" data-name="Path 14169" d="M-1171.457-651.791l-.64.49-2.267,1.766h0a8.749,8.749,0,0,0,7.811,4.828,8.351,8.351,0,0,0,5.791-2.116l-2.84-2.2a5.212,5.212,0,0,1-2.951.843,5.224,5.224,0,0,1-4.9-3.6Z" transform="translate(-9.278 -103.465)" fill="#34a853"/>
    <path id="Path_14170" data-name="Path 14170" d="M-1183.643-712.61a8.642,8.642,0,0,0-.938,3.922,8.642,8.642,0,0,0,.938,3.922c0,.008,2.911-2.259,2.911-2.259a5.242,5.242,0,0,1-.278-1.663,5.242,5.242,0,0,1,.278-1.663Z" transform="translate(0 -47.983)" fill="#fbbc05"/>
    <path id="Path_14171" data-name="Path 14171" d="M-1166.639-761.687a4.693,4.693,0,0,1,3.312,1.3l2.478-2.506a8.253,8.253,0,0,0-5.79-2.283,8.63,8.63,0,0,0-7.726,4.828l2.88,2.259A5.173,5.173,0,0,1-1166.639-761.687Z" transform="translate(-9.278 0)" fill="#ea4335"/>
  </g>
</svg>
