<svg xmlns="http://www.w3.org/2000/svg" width="24.136" height="21.454" viewBox="0 0 24.136 21.454">
  <path id="Icon_awesome-shopping-cart" data-name="Icon awesome-shopping-cart" d="M22.129,12.626,24.11,3.91a1.006,1.006,0,0,0-.981-1.229H6.671L6.287.8A1.006,1.006,0,0,0,5.3,0h-4.3A1.006,1.006,0,0,0,0,1.006v.67A1.006,1.006,0,0,0,1.006,2.682H3.934L6.877,17.072a2.347,2.347,0,1,0,2.809.359h8.785A2.346,2.346,0,1,0,21.136,17l.231-1.017a1.006,1.006,0,0,0-.981-1.229H9.14l-.274-1.341H21.149A1.006,1.006,0,0,0,22.129,12.626Z" fill="#646466"/>
</svg>
