<svg xmlns="http://www.w3.org/2000/svg" xmlns:xlink="http://www.w3.org/1999/xlink" width="206.209" height="34.63" viewBox="0 0 206.209 34.63">
  <defs>
    <clipPath id="clip-path">
      <rect id="Rectangle_3252" data-name="Rectangle 3252" width="34.63" height="34.63" rx="17.315" fill="#f37776"/>
    </clipPath>
  </defs>
  <g id="Group_4302" data-name="Group 4302" transform="translate(-381.904 -28.543)">
    <g id="Group_4101" data-name="Group 4101" transform="translate(381.904 28.543)">
      <g id="Group_4100" data-name="Group 4100" clip-path="url(#clip-path)">
        <rect id="Rectangle_3251" data-name="Rectangle 3251" width="36.06" height="36.06" transform="translate(-1.459 0.062) rotate(-2.417)" fill="#f37776"/>
      </g>
    </g>
    <path id="Path_2115" data-name="Path 2115" d="M220.414,98.149l1.627-.1a.6.6,0,0,0,.56-.636l-.275-4.323a.567.567,0,0,0-.6-.53l-1.659.105Z" transform="translate(189.301 -51.614)" fill="#e62a2e"/>
    <path id="Path_2123" data-name="Path 2123" d="M51.212,68.047h-.022a7.19,7.19,0,0,1-2.279-.436,38.881,38.881,0,0,1-4.3-1.839,8.235,8.235,0,0,1-4.579-7.132c-.058-1.419.11-4.707.113-4.706.063.021.663.154,1.2.339.655.225.978.591.945,1.2l-.007.3a22.737,22.737,0,0,0-.037,2.769A5.985,5.985,0,0,0,45.6,63.79a36.668,36.668,0,0,0,4.055,1.736,4.1,4.1,0,0,0,3.108,0A36.687,36.687,0,0,0,56.82,63.79a6.064,6.064,0,0,0,3.356-5.259,42.127,42.127,0,0,0-.146-5.638,0,0,0,0,0-.006,0,21.657,21.657,0,0,0-8.013,4.665c-.2.209-.746.8-.79.847a0,0,0,0,1-.006,0c-.045-.048-.616-.657-.814-.873-1.68-1.834-4.653-3.461-9.354-5.12a1.108,1.108,0,0,1-.736-1.125,6.055,6.055,0,0,1,5.86-5.721c1.742-.063,8.334-.063,10.076,0a5.939,5.939,0,0,1,4.4,2.141c.186.222.611.7.654.749a0,0,0,0,1,0,.006l-1.461.662a.953.953,0,0,1-1.081-.209,3.754,3.754,0,0,0-2.59-1.137c-1.714-.062-8.2-.062-9.916,0a3.836,3.836,0,0,0-3.592,2.856,0,0,0,0,0,0,.005,26.721,26.721,0,0,1,8.568,4.6,0,0,0,0,0,.005,0,27.811,27.811,0,0,1,9.41-4.924,1.108,1.108,0,0,1,1.459.942,50.147,50.147,0,0,1,.281,7.393,8.331,8.331,0,0,1-4.578,7.12,38.892,38.892,0,0,1-4.3,1.839,7.19,7.19,0,0,1-2.279.436h-.022" transform="translate(348.073 -10.13)" fill="#fff"/>
    <g id="Group_4301" data-name="Group 4301" transform="translate(427.849 32.315)">
      <path id="Path_2124" data-name="Path 2124" d="M335.994,67.8h-6.431a1.864,1.864,0,0,1-1.864-1.864v-13.8a1.864,1.864,0,0,1,1.864-1.864h6.431a8.766,8.766,0,0,1,0,17.533m-4.567-3.728h4.567a5.038,5.038,0,0,0,0-10.077h-4.567Z" transform="translate(-327.699 -50.267)" fill="#333"/>
      <path id="Path_2125" data-name="Path 2125" d="M329.563,138.942a1.864,1.864,0,0,1-1.864-1.864v-9.549a1.864,1.864,0,1,1,3.728,0v9.549a1.864,1.864,0,0,1-1.864,1.864" transform="translate(-327.699 -113.572)" fill="#333"/>
      <path id="Path_2126" data-name="Path 2126" d="M442.995,111.931a9.4,9.4,0,1,1,9.4-9.4,9.408,9.408,0,0,1-9.4,9.4m0-15.068a5.67,5.67,0,1,0,5.67,5.67,5.676,5.676,0,0,0-5.67-5.67" transform="translate(-416.612 -86.26)" fill="#333"/>
      <path id="Path_2128" data-name="Path 2128" d="M568.21,111.932a9.4,9.4,0,1,1,5.526-17,1.864,1.864,0,1,1-2.192,3.015A5.67,5.67,0,1,0,568.21,108.2a5.7,5.7,0,0,0,3.477-1.191,1.864,1.864,0,0,1,2.286,2.945,9.444,9.444,0,0,1-5.763,1.974" transform="translate(-521.745 -86.26)" fill="#333"/>
      <path id="Path_2129" data-name="Path 2129" d="M907.872,87.1a6.924,6.924,0,0,1-6.916-6.916V65.331a1.864,1.864,0,1,1,3.728,0v14.85a3.188,3.188,0,0,0,5.137,2.523,1.864,1.864,0,1,1,2.279,2.95,6.95,6.95,0,0,1-4.228,1.443" transform="translate(-809.014 -61.35)" fill="#333"/>
      <path id="Path_2130" data-name="Path 2130" d="M776.879,111.931a9.4,9.4,0,1,1,0-18.8c4.437,0,7.672,2.321,8.877,6.368a4.455,4.455,0,0,1-4.281,5.711h-9.591a5.675,5.675,0,0,0,5,2.99,7.78,7.78,0,0,0,5.028-1.555,1.864,1.864,0,0,1,2.592,2.68c-1.984,1.919-5.237,2.6-7.62,2.6m0-15.068a5.679,5.679,0,0,0-5.573,4.624l.084,0h10.085a.728.728,0,0,0,.595-.3.691.691,0,0,0,.113-.62c-.731-2.457-2.515-3.7-5.3-3.7" transform="translate(-696.946 -86.26)" fill="#333"/>
      <path id="Path_2131" data-name="Path 2131" d="M672.674,75.857a1.864,1.864,0,0,1-1.864-1.864V52.414a1.864,1.864,0,0,1,3.728,0V73.993a1.864,1.864,0,0,1-1.864,1.864" transform="translate(-615.78 -50.505)" fill="#333"/>
      <path id="Path_2132" data-name="Path 2132" d="M685.247,143.588a1.859,1.859,0,0,1-1.4-.633,26.991,26.991,0,0,0-11.785-8.11,1.864,1.864,0,1,1,1.22-3.523,30.983,30.983,0,0,1,13.366,9.171,1.864,1.864,0,0,1-1.4,3.095" transform="translate(-615.777 -118.235)" fill="#333"/>
      <path id="Path_2133" data-name="Path 2133" d="M677.78,101.642a1.864,1.864,0,0,1-.628-3.619,23.9,23.9,0,0,0,8.789-5.571,1.864,1.864,0,1,1,2.636,2.636,27.648,27.648,0,0,1-10.169,6.444,1.86,1.86,0,0,1-.628.11" transform="translate(-620.067 -85.228)" fill="#333"/>
      <path id="Path_2134" data-name="Path 2134" d="M894.8,98.975H885.68a1.864,1.864,0,1,1,0-3.728H894.8a1.864,1.864,0,1,1,0,3.728" transform="translate(-794.623 -88.033)" fill="#333"/>
    </g>
    <g id="Group_4300" data-name="Group 4300" transform="translate(535.181 32.356)">
      <path id="Path_2127" data-name="Path 2127" d="M1094.538,111.931a9.4,9.4,0,1,1,9.4-9.4,9.408,9.408,0,0,1-9.4,9.4m0-15.068a5.67,5.67,0,1,0,5.67,5.67,5.676,5.676,0,0,0-5.67-5.67" transform="translate(-1070.989 -86.301)" fill="#f37776"/>
      <path id="Path_2135" data-name="Path 2135" d="M1008.5,76.159h-9.722A1.864,1.864,0,0,1,996.91,74.3V52.6a1.864,1.864,0,0,1,1.864-1.864h9.97a1.864,1.864,0,1,1,0,3.728h-8.106V72.431h7.858a1.864,1.864,0,1,1,0,3.728" transform="translate(-996.91 -50.7)" fill="#f37776"/>
      <path id="Path_2136" data-name="Path 2136" d="M1006.252,116.443h-7.478a1.864,1.864,0,0,1,0-3.728h7.478a1.864,1.864,0,0,1,0,3.728" transform="translate(-996.91 -102.74)" fill="#f37776"/>
      <path id="Path_2137" data-name="Path 2137" d="M1181.5,75.977a1.864,1.864,0,0,1-1.864-1.864V52.388a1.864,1.864,0,1,1,3.728,0V74.113a1.864,1.864,0,0,1-1.864,1.864" transform="translate(-1150.328 -50.524)" fill="#f37776"/>
      <path id="Path_2138" data-name="Path 2138" d="M1226.853,114.186a8.735,8.735,0,0,1-8.726-8.725v-8.02a1.864,1.864,0,0,1,3.728,0v8.02a5,5,0,0,0,10,0v-8.02a1.864,1.864,0,0,1,3.728,0v8.02a8.735,8.735,0,0,1-8.726,8.725" transform="translate(-1182.647 -88.351)" fill="#f37776"/>
    </g>
  </g>
</svg>
